<svg width="390" height="844" viewBox="0 0 390 844" fill="none" xmlns="http://www.w3.org/2000/svg">
<g clip-path="url(#clip0_255_11233)">
<rect width="390" height="844" fill="black"/>
<path d="M314.527 292.059L76.9585 523.344" stroke="#C7C7C7" stroke-width="1.13743" stroke-dasharray="2.27 2.27"/>
<path d="M360.746 409.214H29.1862" stroke="#C7C7C7" stroke-width="1.13743" stroke-dasharray="2.27 2.27"/>
<path d="M196.389 242.012V573.572" stroke="#C7C7C7" stroke-width="1.13743" stroke-dasharray="2.27 2.27"/>
<path d="M76.959 292.059L311.407 526.507" stroke="#C7C7C7" stroke-width="1.13743" stroke-dasharray="2.27 2.27"/>
<circle cx="196.389" cy="408.076" r="63.6959" stroke="#7A7A7A" stroke-width="0.568713" stroke-dasharray="1.14 1.14"/>
<circle cx="196.388" cy="408.076" r="100.094" stroke="#7A7A7A" stroke-width="0.568713" stroke-dasharray="1.14 1.14"/>
<circle cx="195.82" cy="407.507" r="90.4254" stroke="white" stroke-width="0.909941"/>
<circle cx="195.82" cy="407.507" r="115.449" stroke="white" stroke-width="0.909941"/>
<circle cx="196.389" cy="407.935" r="166.064" stroke="#AAAAAA" stroke-width="2.27485" stroke-linecap="round" stroke-dasharray="1.14 11.37"/>
<circle cx="195.252" cy="408.076" r="166.064" stroke="#AAAAAA" stroke-width="0.568713" stroke-linecap="round"/>
<circle cx="194.682" cy="407.507" r="185.969" stroke="#AAAAAA" stroke-width="0.568713" stroke-linecap="round"/>
<g filter="url(#filter0_ifg_255_11233)">
<path d="M193.85 302.565L186.245 391.49C186.149 392.607 184.86 393.179 183.968 392.501L159.535 373.932C158.202 372.919 156.52 374.64 157.562 375.95L176.631 399.908C177.321 400.775 176.798 402.064 175.698 402.204L111.493 410.375C109.829 410.587 109.84 413.001 111.506 413.198L175.625 420.775C176.74 420.907 177.27 422.22 176.557 423.089L156.518 447.527C155.452 448.827 157.126 450.575 158.47 449.567L183.902 430.493C184.81 429.812 186.11 430.417 186.174 431.55L195.978 605.216L204.38 431.577C204.435 430.438 205.741 429.824 206.653 430.509L232.064 449.567C233.408 450.575 235.082 448.827 234.017 447.527L213.981 423.094C213.268 422.224 213.799 420.91 214.917 420.78L280.238 413.198C281.908 413.004 281.919 410.583 280.251 410.375L214.844 402.199C213.742 402.061 213.216 400.771 213.908 399.902L232.972 375.95C234.014 374.64 232.332 372.919 230.999 373.932L206.566 392.501C205.674 393.179 204.385 392.607 204.289 391.49L196.684 302.565C196.536 300.83 193.999 300.83 193.85 302.565Z" fill="white" fill-opacity="0.85"/>
<path d="M193.85 302.565L186.245 391.49C186.149 392.607 184.86 393.179 183.968 392.501L159.535 373.932C158.202 372.919 156.52 374.64 157.562 375.95L176.631 399.908C177.321 400.775 176.798 402.064 175.698 402.204L111.493 410.375C109.829 410.587 109.84 413.001 111.506 413.198L175.625 420.775C176.74 420.907 177.27 422.22 176.557 423.089L156.518 447.527C155.452 448.827 157.126 450.575 158.47 449.567L183.902 430.493C184.81 429.812 186.11 430.417 186.174 431.55L195.978 605.216L204.38 431.577C204.435 430.438 205.741 429.824 206.653 430.509L232.064 449.567C233.408 450.575 235.082 448.827 234.017 447.527L213.981 423.094C213.268 422.224 213.799 420.91 214.917 420.78L280.238 413.198C281.908 413.004 281.919 410.583 280.251 410.375L214.844 402.199C213.742 402.061 213.216 400.771 213.908 399.902L232.972 375.95C234.014 374.64 232.332 372.919 230.999 373.932L206.566 392.501C205.674 393.179 204.385 392.607 204.289 391.49L196.684 302.565C196.536 300.83 193.999 300.83 193.85 302.565Z" stroke="black" stroke-width="0.710949"/>
</g>
<path d="M111.851 265.2L122.21 261.111L121.429 266.267L123.641 261.442L130.247 270.488L126.132 260.07L131.297 260.832L126.522 258.736L135.515 252.166L125.208 256.351L125.884 251.004L123.82 255.872L117.214 246.825L121.329 257.243L116.016 256.439L120.897 258.725L111.851 265.2Z" fill="white" fill-opacity="0.22"/>
<g filter="url(#filter1_g_255_11233)">
<path d="M302.841 344.31L313.884 345.758L310.7 349.888L314.975 346.741L316.365 357.856L317.819 346.749L321.966 349.92L318.806 345.772L329.857 344.387L318.814 343.048L321.998 338.7L317.832 341.956L316.442 330.841L314.989 341.948L310.732 338.668L313.892 343.034L302.841 344.31Z" fill="#A1A1A1"/>
</g>
<g filter="url(#filter2_g_255_11233)">
<path d="M205.039 184.508L216.081 185.955L212.898 190.086L217.172 186.939L218.563 198.054L220.016 186.947L224.163 190.117L221.003 185.969L232.054 184.584L221.011 183.246L224.195 178.897L220.03 182.154L218.639 171.038L217.186 182.146L212.93 178.865L216.089 183.232L205.039 184.508Z" fill="#A1A1A1"/>
</g>
<path d="M281.18 264.866L270.821 260.777L271.602 265.933L269.39 261.108L262.784 270.154L266.899 259.736L261.734 260.498L266.51 258.402L257.517 251.832L267.824 256.017L267.147 250.67L269.211 255.538L275.817 246.491L271.702 256.909L277.015 256.105L272.135 258.391L281.18 264.866Z" fill="white" fill-opacity="0.22"/>
<g filter="url(#filter3_g_255_11233)">
<path d="M82.8552 394.493L71.7939 395.791L74.9214 399.964L70.6898 396.76L69.1495 407.855L67.8462 396.73L63.6566 399.844L66.8724 395.739L55.8413 394.205L66.9014 393.016L63.7762 388.625L67.8973 391.937L69.4376 380.842L70.7409 391.967L75.0411 388.745L71.823 393.068L82.8552 394.493Z" fill="#A1A1A1"/>
</g>
<path d="M45.6208 336.128L52.4707 327.346L54.4148 332.185L53.8717 326.905L64.1554 331.346L55.3214 324.458L60.1579 322.493L54.9798 323.112L59.393 312.886L52.6369 321.723L50.5053 316.773L51.1979 322.015L40.9142 317.574L49.7482 324.461L44.7622 326.465L50.1278 325.958L45.6208 336.128Z" fill="white" fill-opacity="0.36"/>
<path d="M347.41 335.794L340.561 327.012L338.616 331.851L339.16 326.571L328.876 331.012L337.71 324.124L332.873 322.159L338.051 322.778L333.638 312.552L340.394 321.389L342.526 316.439L341.833 321.681L352.117 317.24L343.283 324.127L348.269 326.131L342.903 325.624L347.41 335.794Z" fill="white" fill-opacity="0.36"/>
<path d="M29.4966 422.249L31.3657 411.27L35.3712 414.609L32.3902 410.217L43.5504 409.253L32.5071 407.376L35.8344 403.353L31.568 406.352L30.6072 395.256L28.847 406.24L24.6237 402.892L27.7181 407.179L16.5579 408.142L27.6012 410.02L24.1606 414.148L28.6446 411.158L29.4966 422.249Z" fill="white"/>
<path d="M363.535 421.915L361.666 410.936L357.66 414.275L360.641 409.883L349.481 408.919L360.524 407.042L357.197 403.019L361.463 406.018L362.424 394.922L364.184 405.906L368.408 402.558L365.313 406.845L376.473 407.808L365.43 409.686L368.871 413.814L364.387 410.824L363.535 421.915Z" fill="white"/>
<path d="M196.389 148.742V221.538" stroke="#C7C7C7" stroke-width="1.13743" stroke-dasharray="2.27 2.27"/>
<path d="M196.389 593.477V666.272" stroke="#C7C7C7" stroke-width="1.13743" stroke-dasharray="2.27 2.27"/>
<path d="M282.582 572.008L300.148 602.433" stroke="#C7C7C7" stroke-width="1.13743" stroke-dasharray="2.27 2.27"/>
<path d="M279.168 240.589L296.734 210.164" stroke="#C7C7C7" stroke-width="1.13743" stroke-dasharray="2.27 2.27"/>
<path d="M109.311 571.865L91.7448 602.29" stroke="#C7C7C7" stroke-width="1.13743" stroke-dasharray="2.27 2.27"/>
<path d="M105.898 240.731L88.3326 210.307" stroke="#C7C7C7" stroke-width="1.13743" stroke-dasharray="2.27 2.27"/>
<circle cx="195.252" cy="408.064" r="166.064" stroke="#AAAAAA" stroke-width="0.568713" stroke-linecap="round"/>
<path d="M196.676 561.562V637.558" stroke="#C7C7C7" stroke-width="1.18744" stroke-dasharray="2.37 2.37"/>
<path d="M286.658 539.149L304.996 570.912" stroke="#C7C7C7" stroke-width="1.18744" stroke-dasharray="2.37 2.37"/>
<path d="M105.77 539L87.4313 570.763" stroke="#C7C7C7" stroke-width="1.18744" stroke-dasharray="2.37 2.37"/>
<path d="M195.996 295V343" stroke="#C7C7C7" stroke-width="1.18744" stroke-dasharray="2.37 2.37"/>
<path d="M196.496 523V475" stroke="#C7C7C7" stroke-width="1.18744" stroke-dasharray="2.37 2.37"/>
<path d="M195.996 295V343" stroke="#4C4C4C" stroke-width="1.18744" stroke-dasharray="2.37 2.37"/>
<path d="M196.496 523V475" stroke="#C7C7C7" stroke-width="1.18744" stroke-dasharray="2.37 2.37"/>
<path d="M196.996 476V524" stroke="#4C4C4C" stroke-width="1.18744" stroke-dasharray="2.37 2.37"/>
<path d="M63.4961 409H129.996" stroke="#C7C7C7" stroke-width="1.18744" stroke-dasharray="2.37 2.37"/>
<path d="M63.9961 409H130.496" stroke="#4C4C4C" stroke-width="1.18744" stroke-dasharray="2.37 2.37"/>
<path d="M328.496 409H261.996" stroke="#C7C7C7" stroke-width="1.18744" stroke-dasharray="2.37 2.37"/>
<path d="M328.996 409H262.496" stroke="#4C4C4C" stroke-width="1.18744" stroke-dasharray="2.37 2.37"/>
<circle cx="196.495" cy="409.497" r="66.4968" stroke="#4C4C4C" stroke-width="0.593722" stroke-dasharray="1.19 1.19"/>
<circle cx="195.996" cy="409" r="143" stroke="#4C4C4C" stroke-linecap="round" stroke-dasharray="0.98 9.79"/>
<g filter="url(#filter4_g_255_11233)">
<path d="M196.682 669.372L193.57 645.094L184.473 652.065L191.415 642.691L166.996 639.566L191.415 636.441L184.473 627.307L193.57 634.278L196.682 610L199.555 634.278L209.131 627.307L201.949 636.441L226.368 639.566L201.949 642.691L209.131 652.065L199.555 645.094L196.682 669.372Z" fill="white"/>
<path d="M196.682 669.372L193.57 645.094L184.473 652.065L191.415 642.691L166.996 639.566L191.415 636.441L184.473 627.307L193.57 634.278L196.682 610L199.555 634.278L209.131 627.307L201.949 636.441L226.368 639.566L201.949 642.691L209.131 652.065L199.555 645.094L196.682 669.372Z" stroke="#A8A8A8" stroke-width="0.593722"/>
</g>
<g filter="url(#filter5_g_255_11233)">
<path d="M196.682 564.372L193.57 540.094L184.473 547.065L191.415 537.691L166.996 534.566L191.415 531.441L184.473 522.307L193.57 529.278L196.682 505L199.555 529.278L209.131 522.307L201.949 531.441L226.368 534.566L201.949 537.691L209.131 547.065L199.555 540.094L196.682 564.372Z" fill="white"/>
<path d="M196.682 564.372L193.57 540.094L184.473 547.065L191.415 537.691L166.996 534.566L191.415 531.441L184.473 522.307L193.57 529.278L196.682 505L199.555 529.278L209.131 522.307L201.949 531.441L226.368 534.566L201.949 537.691L209.131 547.065L199.555 540.094L196.682 564.372Z" stroke="#A8A8A8" stroke-width="0.593722"/>
</g>
<path d="M178.542 345.693L170.996 317" stroke="#C7C7C7" stroke-width="0.8" stroke-dasharray="2.37 2.37"/>
<path d="M179.042 472.307L171.496 501" stroke="#C7C7C7" stroke-width="0.8" stroke-dasharray="2.37 2.37"/>
<path d="M213.45 345.693L220.996 317" stroke="#C7C7C7" stroke-width="0.8" stroke-dasharray="2.37 2.37"/>
<path d="M213.95 472.307L221.496 501" stroke="#C7C7C7" stroke-width="0.8" stroke-dasharray="2.37 2.37"/>
<path d="M131.336 390.872L100.998 381.5" stroke="#C7C7C7" stroke-width="0.8" stroke-dasharray="2.37 2.37"/>
<path d="M131.836 427.128L101.498 436.5" stroke="#C7C7C7" stroke-width="0.8" stroke-dasharray="2.37 2.37"/>
<path d="M260.658 390.872L290.996 381.5" stroke="#C7C7C7" stroke-width="0.8" stroke-dasharray="2.37 2.37"/>
<path d="M261.158 427.128L291.496 436.5" stroke="#C7C7C7" stroke-width="0.8" stroke-dasharray="2.37 2.37"/>
<path d="M169.497 311.5L164.997 295.5" stroke="#C7C7C7" stroke-width="0.8" stroke-dasharray="2.37 2.37"/>
<path d="M222.497 311.5L226.997 295.5" stroke="#C7C7C7" stroke-width="0.8" stroke-dasharray="2.37 2.37"/>
<path d="M141.498 315.13L136.998 308" stroke="#C7C7C7" stroke-width="0.8" stroke-dasharray="2.37 2.37"/>
<path d="M250.497 315.13L254.996 308" stroke="#C7C7C7" stroke-width="0.8" stroke-dasharray="2.37 2.37"/>
<path d="M93.035 379.704L84.9979 377.157" stroke="#C7C7C7" stroke-width="0.8" stroke-dasharray="2.37 2.37"/>
<path d="M298.959 379.704L306.996 377.157" stroke="#C7C7C7" stroke-width="0.8" stroke-dasharray="2.37 2.37"/>
<path d="M106.54 351.749L94.4982 342.5" stroke="#C7C7C7" stroke-width="0.8" stroke-dasharray="2.37 2.37"/>
<path d="M285.454 351.749L297.496 342.5" stroke="#C7C7C7" stroke-width="0.8" stroke-dasharray="2.37 2.37"/>
<path d="M149.897 360.668L109.998 318.001" stroke="#C7C7C7" stroke-width="0.8" stroke-dasharray="2.37 2.37"/>
<path d="M150.397 457.332L110.498 499.999" stroke="#C7C7C7" stroke-width="0.8" stroke-dasharray="2.37 2.37"/>
<path d="M242.097 360.668L281.996 318.001" stroke="#C7C7C7" stroke-width="0.8" stroke-dasharray="2.37 2.37"/>
<path d="M242.597 457.332L282.496 499.999" stroke="#C7C7C7" stroke-width="0.8" stroke-dasharray="2.37 2.37"/>
<path d="M163.439 350.907L143.998 319.501" stroke="#C7C7C7" stroke-width="0.8" stroke-dasharray="2.37 2.37"/>
<path d="M163.939 467.094L144.498 498.5" stroke="#C7C7C7" stroke-width="0.8" stroke-dasharray="2.37 2.37"/>
<path d="M228.555 350.907L247.996 319.501" stroke="#C7C7C7" stroke-width="0.8" stroke-dasharray="2.37 2.37"/>
<path d="M229.055 467.093L248.496 498.499" stroke="#C7C7C7" stroke-width="0.8" stroke-dasharray="2.37 2.37"/>
<path d="M139.236 375.423L112.997 357" stroke="#C7C7C7" stroke-width="0.8" stroke-dasharray="2.37 2.37"/>
<path d="M139.736 442.577L113.497 461" stroke="#C7C7C7" stroke-width="0.8" stroke-dasharray="2.37 2.37"/>
<path d="M252.758 375.423L278.997 357" stroke="#C7C7C7" stroke-width="0.8" stroke-dasharray="2.37 2.37"/>
<path d="M253.258 442.577L279.497 461" stroke="#C7C7C7" stroke-width="0.8" stroke-dasharray="2.37 2.37"/>
<path d="M369.537 134.423L368.387 141.179L365.922 139.124L367.757 141.827L360.889 142.42L367.685 143.575L365.637 146.051L368.263 144.205L368.854 151.033L369.937 144.274L372.536 146.335L370.632 143.697L377.499 143.103L370.704 141.948L372.821 139.408L370.062 141.248L369.537 134.423Z" fill="#AAAAAA"/>
<path d="M23.3044 134.423L24.4546 141.179L26.9195 139.124L25.0851 141.827L31.9526 142.42L25.157 143.575L27.2045 146.051L24.5791 144.205L23.9879 151.033L22.9047 144.274L20.3059 146.335L22.21 143.697L15.3425 143.103L22.1381 141.948L20.0209 139.408L22.7802 141.248L23.3044 134.423Z" fill="#AAAAAA"/>
<path d="M196.682 185.811V109.814" stroke="#C7C7C7" stroke-width="1.18744" stroke-dasharray="2.37 2.37"/>
<g filter="url(#filter6_g_255_11233)">
<path d="M196.688 77.9999L193.576 102.278L184.478 95.3068L191.421 104.681L167.002 107.806L191.421 110.931L184.478 120.065L193.576 113.094L196.688 137.372L199.561 113.094L209.137 120.065L201.955 110.931L226.374 107.806L201.955 104.681L209.137 95.3068L199.561 102.278L196.688 77.9999Z" fill="#D9D9D9"/>
<path d="M196.688 77.9999L193.576 102.278L184.478 95.3068L191.421 104.681L167.002 107.806L191.421 110.931L184.478 120.065L193.576 113.094L196.688 137.372L199.561 113.094L209.137 120.065L201.955 110.931L226.374 107.806L201.955 104.681L209.137 95.3068L199.561 102.278L196.688 77.9999Z" stroke="#A8A8A8" stroke-width="0.593722"/>
</g>
</g>
<defs>
<filter id="filter0_ifg_255_11233" x="104.209" y="295.221" width="183.33" height="315.703" filterUnits="userSpaceOnUse" color-interpolation-filters="sRGB">
<feFlood flood-opacity="0" result="BackgroundImageFix"/>
<feBlend mode="normal" in="SourceGraphic" in2="BackgroundImageFix" result="shape"/>
<feColorMatrix in="SourceAlpha" type="matrix" values="0 0 0 0 0 0 0 0 0 0 0 0 0 0 0 0 0 0 127 0" result="hardAlpha"/>
<feOffset/>
<feGaussianBlur stdDeviation="10.2377"/>
<feComposite in2="hardAlpha" operator="arithmetic" k2="-1" k3="1"/>
<feColorMatrix type="matrix" values="0 0 0 0 1 0 0 0 0 0.984749 0 0 0 0 0.0849357 0 0 0 0.25 0"/>
<feBlend mode="normal" in2="shape" result="effect1_innerShadow_255_11233"/>
<feGaussianBlur stdDeviation="2.8438" result="effect2_foregroundBlur_255_11233"/>
<feTurbulence type="fractalNoise" baseFrequency="1 1" numOctaves="3" seed="267" />
<feDisplacementMap in="effect2_foregroundBlur_255_11233" scale="8" xChannelSelector="R" yChannelSelector="G" result="displacedImage" width="100%" height="100%" />
<feMerge result="effect3_texture_255_11233">
<feMergeNode in="displacedImage"/>
</feMerge>
</filter>
<filter id="filter1_g_255_11233" x="298.842" y="326.841" width="35.0156" height="35.0156" filterUnits="userSpaceOnUse" color-interpolation-filters="sRGB">
<feFlood flood-opacity="0" result="BackgroundImageFix"/>
<feBlend mode="normal" in="SourceGraphic" in2="BackgroundImageFix" result="shape"/>
<feTurbulence type="fractalNoise" baseFrequency="2 2" numOctaves="3" seed="7565" />
<feDisplacementMap in="shape" scale="8" xChannelSelector="R" yChannelSelector="G" result="displacedImage" width="100%" height="100%" />
<feMerge result="effect1_texture_255_11233">
<feMergeNode in="displacedImage"/>
</feMerge>
</filter>
<filter id="filter2_g_255_11233" x="201.039" y="167.038" width="35.0156" height="35.0156" filterUnits="userSpaceOnUse" color-interpolation-filters="sRGB">
<feFlood flood-opacity="0" result="BackgroundImageFix"/>
<feBlend mode="normal" in="SourceGraphic" in2="BackgroundImageFix" result="shape"/>
<feTurbulence type="fractalNoise" baseFrequency="2 2" numOctaves="3" seed="7565" />
<feDisplacementMap in="shape" scale="8" xChannelSelector="R" yChannelSelector="G" result="displacedImage" width="100%" height="100%" />
<feMerge result="effect1_texture_255_11233">
<feMergeNode in="displacedImage"/>
</feMerge>
</filter>
<filter id="filter3_g_255_11233" x="51.8418" y="376.842" width="35.0137" height="35.0137" filterUnits="userSpaceOnUse" color-interpolation-filters="sRGB">
<feFlood flood-opacity="0" result="BackgroundImageFix"/>
<feBlend mode="normal" in="SourceGraphic" in2="BackgroundImageFix" result="shape"/>
<feTurbulence type="fractalNoise" baseFrequency="2 2" numOctaves="3" seed="7565" />
<feDisplacementMap in="shape" scale="8" xChannelSelector="R" yChannelSelector="G" result="displacedImage" width="100%" height="100%" />
<feMerge result="effect1_texture_255_11233">
<feMergeNode in="displacedImage"/>
</feMerge>
</filter>
<filter id="filter4_g_255_11233" x="162.959" y="605.962" width="67.4473" height="67.4482" filterUnits="userSpaceOnUse" color-interpolation-filters="sRGB">
<feFlood flood-opacity="0" result="BackgroundImageFix"/>
<feBlend mode="normal" in="SourceGraphic" in2="BackgroundImageFix" result="shape"/>
<feTurbulence type="fractalNoise" baseFrequency="2 2" numOctaves="3" seed="1794" />
<feDisplacementMap in="shape" scale="8" xChannelSelector="R" yChannelSelector="G" result="displacedImage" width="100%" height="100%" />
<feMerge result="effect1_texture_255_11233">
<feMergeNode in="displacedImage"/>
</feMerge>
</filter>
<filter id="filter5_g_255_11233" x="164.959" y="502.962" width="63.4473" height="63.4482" filterUnits="userSpaceOnUse" color-interpolation-filters="sRGB">
<feFlood flood-opacity="0" result="BackgroundImageFix"/>
<feBlend mode="normal" in="SourceGraphic" in2="BackgroundImageFix" result="shape"/>
<feTurbulence type="fractalNoise" baseFrequency="1 1" numOctaves="3" seed="430" />
<feDisplacementMap in="shape" scale="4" xChannelSelector="R" yChannelSelector="G" result="displacedImage" width="100%" height="100%" />
<feMerge result="effect1_texture_255_11233">
<feMergeNode in="displacedImage"/>
</feMerge>
</filter>
<filter id="filter6_g_255_11233" x="162.965" y="73.9619" width="67.4473" height="67.4482" filterUnits="userSpaceOnUse" color-interpolation-filters="sRGB">
<feFlood flood-opacity="0" result="BackgroundImageFix"/>
<feBlend mode="normal" in="SourceGraphic" in2="BackgroundImageFix" result="shape"/>
<feTurbulence type="fractalNoise" baseFrequency="1 1" numOctaves="3" seed="3125" />
<feDisplacementMap in="shape" scale="8" xChannelSelector="R" yChannelSelector="G" result="displacedImage" width="100%" height="100%" />
<feMerge result="effect1_texture_255_11233">
<feMergeNode in="displacedImage"/>
</feMerge>
</filter>
<clipPath id="clip0_255_11233">
<rect width="390" height="844" fill="white"/>
</clipPath>
</defs>
</svg>
