<svg width="390" height="844" viewBox="0 0 390 844" fill="none" xmlns="http://www.w3.org/2000/svg">
<g clip-path="url(#clip0_742_11810)">
<rect width="390" height="844" fill="black"/>
<path d="M314.527 292.059L76.9585 523.344" stroke="#C7C7C7" stroke-width="1.13743" stroke-dasharray="2.27 2.27"/>
<path d="M360.746 409.214H29.1862" stroke="#C7C7C7" stroke-width="1.13743" stroke-dasharray="2.27 2.27"/>
<path d="M196.389 242.012V573.572" stroke="#C7C7C7" stroke-width="1.13743" stroke-dasharray="2.27 2.27"/>
<path d="M76.959 292.059L311.407 526.507" stroke="#C7C7C7" stroke-width="1.13743" stroke-dasharray="2.27 2.27"/>
<circle cx="196.389" cy="408.076" r="63.6959" stroke="#7A7A7A" stroke-width="0.568713" stroke-dasharray="1.14 1.14"/>
<circle cx="196.388" cy="408.076" r="100.094" stroke="#7A7A7A" stroke-width="0.568713" stroke-dasharray="1.14 1.14"/>
<circle cx="195.82" cy="407.507" r="90.4254" stroke="white" stroke-width="0.909941"/>
<circle cx="195.82" cy="407.507" r="115.449" stroke="white" stroke-width="0.909941"/>
<circle cx="195.252" cy="408.076" r="166.064" stroke="#AAAAAA" stroke-width="0.568713" stroke-linecap="round"/>
<circle cx="194.682" cy="407.507" r="185.969" stroke="#AAAAAA" stroke-width="0.568713" stroke-linecap="round"/>
<g filter="url(#filter0_ifg_742_11810)">
<path d="M193.85 302.565L186.245 391.49C186.149 392.607 184.86 393.179 183.968 392.501L159.535 373.932C158.202 372.919 156.52 374.64 157.562 375.95L176.631 399.908C177.321 400.775 176.798 402.064 175.698 402.204L111.493 410.375C109.829 410.587 109.84 413.001 111.506 413.198L175.625 420.775C176.74 420.907 177.27 422.22 176.557 423.089L156.518 447.527C155.452 448.827 157.126 450.575 158.47 449.567L183.902 430.493C184.81 429.812 186.11 430.417 186.174 431.55L195.978 605.216L204.38 431.577C204.435 430.438 205.741 429.824 206.653 430.509L232.064 449.567C233.408 450.575 235.082 448.827 234.017 447.527L213.981 423.094C213.268 422.224 213.799 420.91 214.917 420.78L280.238 413.198C281.908 413.004 281.919 410.583 280.251 410.375L214.844 402.199C213.742 402.061 213.216 400.771 213.908 399.902L232.972 375.95C234.014 374.64 232.332 372.919 230.999 373.932L206.566 392.501C205.674 393.179 204.385 392.607 204.289 391.49L196.684 302.565C196.536 300.83 193.999 300.83 193.85 302.565Z" fill="white" fill-opacity="0.85"/>
<path d="M193.85 302.565L186.245 391.49C186.149 392.607 184.86 393.179 183.968 392.501L159.535 373.932C158.202 372.919 156.52 374.64 157.562 375.95L176.631 399.908C177.321 400.775 176.798 402.064 175.698 402.204L111.493 410.375C109.829 410.587 109.84 413.001 111.506 413.198L175.625 420.775C176.74 420.907 177.27 422.22 176.557 423.089L156.518 447.527C155.452 448.827 157.126 450.575 158.47 449.567L183.902 430.493C184.81 429.812 186.11 430.417 186.174 431.55L195.978 605.216L204.38 431.577C204.435 430.438 205.741 429.824 206.653 430.509L232.064 449.567C233.408 450.575 235.082 448.827 234.017 447.527L213.981 423.094C213.268 422.224 213.799 420.91 214.917 420.78L280.238 413.198C281.908 413.004 281.919 410.583 280.251 410.375L214.844 402.199C213.742 402.061 213.216 400.771 213.908 399.902L232.972 375.95C234.014 374.64 232.332 372.919 230.999 373.932L206.566 392.501C205.674 393.179 204.385 392.607 204.289 391.49L196.684 302.565C196.536 300.83 193.999 300.83 193.85 302.565Z" stroke="black" stroke-width="0.710949"/>
</g>
<path d="M111.851 504.2L122.21 500.111L121.429 505.267L123.641 500.442L130.247 509.488L126.132 499.07L131.297 499.832L126.522 497.736L135.515 491.166L125.208 495.351L125.884 490.004L123.82 494.872L117.214 485.825L121.329 496.243L116.016 495.439L120.897 497.725L111.851 504.2Z" fill="white" fill-opacity="0.22"/>
<g filter="url(#filter1_g_742_11810)">
<path d="M302.841 344.31L313.884 345.758L310.7 349.888L314.975 346.741L316.365 357.856L317.819 346.749L321.966 349.92L318.806 345.772L329.857 344.387L318.814 343.048L321.998 338.7L317.832 341.956L316.442 330.841L314.989 341.948L310.732 338.668L313.892 343.034L302.841 344.31Z" fill="#A1A1A1"/>
</g>
<g filter="url(#filter2_g_742_11810)">
<path d="M205.039 184.508L216.081 185.955L212.898 190.086L217.172 186.939L218.563 198.054L220.016 186.947L224.163 190.117L221.003 185.969L232.054 184.584L221.011 183.246L224.195 178.897L220.03 182.154L218.639 171.038L217.186 182.146L212.93 178.865L216.089 183.232L205.039 184.508Z" fill="#A1A1A1"/>
</g>
<path d="M281.18 503.866L270.821 499.777L271.602 504.933L269.39 500.108L262.784 509.154L266.899 498.736L261.734 499.498L266.51 497.402L257.517 490.832L267.824 495.017L267.147 489.67L269.211 494.538L275.817 485.491L271.702 495.909L277.015 495.105L272.135 497.391L281.18 503.866Z" fill="white" fill-opacity="0.22"/>
<g filter="url(#filter3_g_742_11810)">
<path d="M82.8552 394.493L71.7939 395.791L74.9214 399.964L70.6898 396.76L69.1495 407.855L67.8462 396.73L63.6566 399.844L66.8724 395.739L55.8413 394.205L66.9014 393.016L63.7762 388.625L67.8973 391.937L69.4376 380.842L70.7409 391.967L75.0411 388.745L71.823 393.068L82.8552 394.493Z" fill="#A1A1A1"/>
</g>
<path d="M45.6208 575.128L52.4707 566.346L54.4148 571.185L53.8717 565.905L64.1554 570.346L55.3214 563.458L60.1579 561.493L54.9798 562.112L59.393 551.886L52.6369 560.723L50.5053 555.773L51.1979 561.015L40.9142 556.574L49.7482 563.461L44.7622 565.465L50.1278 564.958L45.6208 575.128Z" fill="white" fill-opacity="0.36"/>
<path d="M347.41 574.794L340.561 566.012L338.616 570.851L339.16 565.571L328.876 570.012L337.71 563.124L332.873 561.159L338.051 561.778L333.638 551.552L340.394 560.389L342.526 555.439L341.833 560.681L352.117 556.24L343.283 563.127L348.269 565.131L342.903 564.624L347.41 574.794Z" fill="white" fill-opacity="0.36"/>
<path d="M29.4966 661.249L31.3657 650.27L35.3712 653.609L32.3902 649.217L43.5504 648.253L32.5071 646.376L35.8344 642.353L31.568 645.352L30.6072 634.256L28.847 645.24L24.6237 641.892L27.7181 646.179L16.5579 647.142L27.6012 649.02L24.1606 653.148L28.6446 650.158L29.4966 661.249Z" fill="white"/>
<path d="M363.535 660.915L361.666 649.936L357.66 653.275L360.641 648.883L349.481 647.919L360.524 646.042L357.197 642.019L361.463 645.018L362.424 633.922L364.184 644.906L368.408 641.558L365.313 645.845L376.473 646.808L365.43 648.686L368.871 652.814L364.387 649.824L363.535 660.915Z" fill="white"/>
<g filter="url(#filter4_f_742_11810)">
<path d="M263.045 532L267.98 561.084L292.125 567.028L267.98 572.972L263.045 602.056L258.11 572.972L233.965 567.028L258.11 561.084L263.045 532Z" fill="url(#paint0_radial_742_11810)"/>
</g>
<path d="M263.045 599.413L259.581 572.388L249.454 580.148L257.182 569.712L230 566.234L257.182 562.755L249.454 552.588L259.581 560.347L263.045 533.322L266.243 560.347L276.903 552.588L268.908 562.755L296.091 566.234L268.908 569.712L276.903 580.148L266.243 572.388L263.045 599.413Z" stroke="#A8A8A8" stroke-width="0.660906"/>
<circle cx="250.351" cy="336.351" r="10.3509" fill="url(#paint1_radial_742_11810)"/>
<circle cx="147.149" cy="448.149" r="4.14923" fill="url(#paint2_radial_742_11810)"/>
<circle cx="92.1492" cy="707.149" r="4.14923" fill="url(#paint3_radial_742_11810)"/>
<circle cx="120.149" cy="170.149" r="4.14923" fill="url(#paint4_radial_742_11810)"/>
<circle cx="267.251" cy="463.251" r="5.25146" fill="url(#paint5_radial_742_11810)"/>
<circle cx="293.251" cy="734.251" r="5.25146" fill="url(#paint6_radial_742_11810)"/>
<circle cx="220.751" cy="71.7515" r="4.75146" fill="url(#paint7_radial_742_11810)"/>
<circle cx="100.284" cy="435.284" r="3.28363" fill="url(#paint8_radial_742_11810)"/>
<path d="M196.389 148.742V221.538" stroke="#C7C7C7" stroke-width="1.13743" stroke-dasharray="2.27 2.27"/>
<path d="M196.389 593.477V666.272" stroke="#C7C7C7" stroke-width="1.13743" stroke-dasharray="2.27 2.27"/>
<path d="M282.582 572.008L300.148 602.433" stroke="#C7C7C7" stroke-width="1.13743" stroke-dasharray="2.27 2.27"/>
<path d="M279.168 240.589L296.734 210.164" stroke="#C7C7C7" stroke-width="1.13743" stroke-dasharray="2.27 2.27"/>
<path d="M109.311 571.865L91.7448 602.29" stroke="#C7C7C7" stroke-width="1.13743" stroke-dasharray="2.27 2.27"/>
<path d="M105.898 240.731L88.3326 210.307" stroke="#C7C7C7" stroke-width="1.13743" stroke-dasharray="2.27 2.27"/>
<g filter="url(#filter5_f_742_11810)">
<path d="M98.3596 260L105.888 304.387L142.719 313.459L105.888 322.531L98.3596 366.918L90.8316 322.531L54 313.459L90.8316 304.387L98.3596 260Z" fill="url(#paint9_radial_742_11810)"/>
</g>
<g filter="url(#filter6_f_742_11810)">
<path d="M98.3604 274.787L103.958 307.369L131.346 314.028L103.958 320.688L98.3604 353.27L92.7626 320.688L65.375 314.028L92.7626 307.369L98.3604 274.787Z" fill="url(#paint10_radial_742_11810)"/>
</g>
<path d="M98.3593 350.994L94.4242 320.763L82.9215 329.443L91.6999 317.769L60.8242 313.878L91.6999 309.987L82.9215 298.613L94.4242 307.293L98.3593 277.062L101.992 307.293L114.1 298.613L105.019 309.987L135.894 313.878L105.019 317.769L114.1 329.443L101.992 320.763L98.3593 350.994Z" stroke="#A8A8A8" stroke-width="0.568713"/>
<path d="M369.537 134.423L368.387 141.179L365.922 139.124L367.757 141.827L360.889 142.42L367.685 143.575L365.637 146.051L368.263 144.205L368.854 151.033L369.937 144.274L372.536 146.335L370.632 143.697L377.499 143.103L370.704 141.948L372.821 139.408L370.062 141.248L369.537 134.423Z" fill="#AAAAAA"/>
<path d="M23.3044 134.423L24.4546 141.179L26.9195 139.124L25.0851 141.827L31.9526 142.42L25.157 143.575L27.2045 146.051L24.5791 144.205L23.9879 151.033L22.9047 144.274L20.3059 146.335L22.21 143.697L15.3425 143.103L22.1381 141.948L20.0209 139.408L22.7802 141.248L23.3044 134.423Z" fill="#AAAAAA"/>
<path d="M196.682 185.811V109.814" stroke="#C7C7C7" stroke-width="1.18744" stroke-dasharray="2.37 2.37"/>
<g filter="url(#filter7_g_742_11810)">
<path d="M196.688 77.9999L193.576 102.278L184.478 95.3068L191.421 104.681L167.002 107.806L191.421 110.931L184.478 120.065L193.576 113.094L196.688 137.372L199.561 113.094L209.137 120.065L201.955 110.931L226.374 107.806L201.955 104.681L209.137 95.3068L199.561 102.278L196.688 77.9999Z" fill="#D9D9D9"/>
<path d="M196.688 77.9999L193.576 102.278L184.478 95.3068L191.421 104.681L167.002 107.806L191.421 110.931L184.478 120.065L193.576 113.094L196.688 137.372L199.561 113.094L209.137 120.065L201.955 110.931L226.374 107.806L201.955 104.681L209.137 95.3068L199.561 102.278L196.688 77.9999Z" stroke="#A8A8A8" stroke-width="0.593722"/>
</g>
<circle cx="2.96861" cy="2.96861" r="2.96861" transform="matrix(1 0 0 -1 142.059 136.449)" fill="url(#paint11_radial_742_11810)"/>
<circle cx="2.96861" cy="2.96861" r="2.96861" transform="matrix(1 0 0 -1 266.74 119.825)" fill="url(#paint12_radial_742_11810)"/>
<circle cx="2.96861" cy="2.96861" r="2.96861" transform="matrix(1 0 0 -1 93.373 149.512)" fill="url(#paint13_radial_742_11810)"/>
</g>
<defs>
<filter id="filter0_ifg_742_11810" x="104.209" y="295.221" width="183.33" height="315.703" filterUnits="userSpaceOnUse" color-interpolation-filters="sRGB">
<feFlood flood-opacity="0" result="BackgroundImageFix"/>
<feBlend mode="normal" in="SourceGraphic" in2="BackgroundImageFix" result="shape"/>
<feColorMatrix in="SourceAlpha" type="matrix" values="0 0 0 0 0 0 0 0 0 0 0 0 0 0 0 0 0 0 127 0" result="hardAlpha"/>
<feOffset/>
<feGaussianBlur stdDeviation="10.2377"/>
<feComposite in2="hardAlpha" operator="arithmetic" k2="-1" k3="1"/>
<feColorMatrix type="matrix" values="0 0 0 0 1 0 0 0 0 0.984749 0 0 0 0 0.0849357 0 0 0 0.25 0"/>
<feBlend mode="normal" in2="shape" result="effect1_innerShadow_742_11810"/>
<feGaussianBlur stdDeviation="2.8438" result="effect2_foregroundBlur_742_11810"/>
<feTurbulence type="fractalNoise" baseFrequency="1 1" numOctaves="3" seed="267" />
<feDisplacementMap in="effect2_foregroundBlur_742_11810" scale="8" xChannelSelector="R" yChannelSelector="G" result="displacedImage" width="100%" height="100%" />
<feMerge result="effect3_texture_742_11810">
<feMergeNode in="displacedImage"/>
</feMerge>
</filter>
<filter id="filter1_g_742_11810" x="298.842" y="326.841" width="35.0156" height="35.0156" filterUnits="userSpaceOnUse" color-interpolation-filters="sRGB">
<feFlood flood-opacity="0" result="BackgroundImageFix"/>
<feBlend mode="normal" in="SourceGraphic" in2="BackgroundImageFix" result="shape"/>
<feTurbulence type="fractalNoise" baseFrequency="2 2" numOctaves="3" seed="7565" />
<feDisplacementMap in="shape" scale="8" xChannelSelector="R" yChannelSelector="G" result="displacedImage" width="100%" height="100%" />
<feMerge result="effect1_texture_742_11810">
<feMergeNode in="displacedImage"/>
</feMerge>
</filter>
<filter id="filter2_g_742_11810" x="201.039" y="167.038" width="35.0156" height="35.0156" filterUnits="userSpaceOnUse" color-interpolation-filters="sRGB">
<feFlood flood-opacity="0" result="BackgroundImageFix"/>
<feBlend mode="normal" in="SourceGraphic" in2="BackgroundImageFix" result="shape"/>
<feTurbulence type="fractalNoise" baseFrequency="2 2" numOctaves="3" seed="7565" />
<feDisplacementMap in="shape" scale="8" xChannelSelector="R" yChannelSelector="G" result="displacedImage" width="100%" height="100%" />
<feMerge result="effect1_texture_742_11810">
<feMergeNode in="displacedImage"/>
</feMerge>
</filter>
<filter id="filter3_g_742_11810" x="51.8418" y="376.842" width="35.0137" height="35.0137" filterUnits="userSpaceOnUse" color-interpolation-filters="sRGB">
<feFlood flood-opacity="0" result="BackgroundImageFix"/>
<feBlend mode="normal" in="SourceGraphic" in2="BackgroundImageFix" result="shape"/>
<feTurbulence type="fractalNoise" baseFrequency="2 2" numOctaves="3" seed="7565" />
<feDisplacementMap in="shape" scale="8" xChannelSelector="R" yChannelSelector="G" result="displacedImage" width="100%" height="100%" />
<feMerge result="effect1_texture_742_11810">
<feMergeNode in="displacedImage"/>
</feMerge>
</filter>
<filter id="filter4_f_742_11810" x="228.678" y="526.713" width="68.7346" height="80.6302" filterUnits="userSpaceOnUse" color-interpolation-filters="sRGB">
<feFlood flood-opacity="0" result="BackgroundImageFix"/>
<feBlend mode="normal" in="SourceGraphic" in2="BackgroundImageFix" result="shape"/>
<feGaussianBlur stdDeviation="2.64362" result="effect1_foregroundBlur_742_11810"/>
</filter>
<filter id="filter5_f_742_11810" x="49.4503" y="255.45" width="97.8182" height="116.017" filterUnits="userSpaceOnUse" color-interpolation-filters="sRGB">
<feFlood flood-opacity="0" result="BackgroundImageFix"/>
<feBlend mode="normal" in="SourceGraphic" in2="BackgroundImageFix" result="shape"/>
<feGaussianBlur stdDeviation="2.27485" result="effect1_foregroundBlur_742_11810"/>
</filter>
<filter id="filter6_f_742_11810" x="60.8253" y="270.237" width="75.0701" height="87.5818" filterUnits="userSpaceOnUse" color-interpolation-filters="sRGB">
<feFlood flood-opacity="0" result="BackgroundImageFix"/>
<feBlend mode="normal" in="SourceGraphic" in2="BackgroundImageFix" result="shape"/>
<feGaussianBlur stdDeviation="2.27485" result="effect1_foregroundBlur_742_11810"/>
</filter>
<filter id="filter7_g_742_11810" x="162.965" y="73.9619" width="67.4473" height="67.4482" filterUnits="userSpaceOnUse" color-interpolation-filters="sRGB">
<feFlood flood-opacity="0" result="BackgroundImageFix"/>
<feBlend mode="normal" in="SourceGraphic" in2="BackgroundImageFix" result="shape"/>
<feTurbulence type="fractalNoise" baseFrequency="1 1" numOctaves="3" seed="4271" />
<feDisplacementMap in="shape" scale="8" xChannelSelector="R" yChannelSelector="G" result="displacedImage" width="100%" height="100%" />
<feMerge result="effect1_texture_742_11810">
<feMergeNode in="displacedImage"/>
</feMerge>
</filter>
<radialGradient id="paint0_radial_742_11810" cx="0" cy="0" r="1" gradientUnits="userSpaceOnUse" gradientTransform="translate(263.045 567.028) rotate(90) scale(35.028 29.0799)">
<stop stop-color="#D6FFFC"/>
<stop offset="1" stop-color="white" stop-opacity="0"/>
</radialGradient>
<radialGradient id="paint1_radial_742_11810" cx="0" cy="0" r="1" gradientUnits="userSpaceOnUse" gradientTransform="translate(250.351 336.351) rotate(90) scale(10.3509)">
<stop offset="0.644231" stop-color="#DFB2B5"/>
<stop offset="1" stop-color="white" stop-opacity="0"/>
</radialGradient>
<radialGradient id="paint2_radial_742_11810" cx="0" cy="0" r="1" gradientUnits="userSpaceOnUse" gradientTransform="translate(147.149 448.149) rotate(90) scale(4.14923)">
<stop offset="0.644231" stop-color="#DFB2B5"/>
<stop offset="1" stop-color="white" stop-opacity="0"/>
</radialGradient>
<radialGradient id="paint3_radial_742_11810" cx="0" cy="0" r="1" gradientUnits="userSpaceOnUse" gradientTransform="translate(92.1492 707.149) rotate(90) scale(4.14923)">
<stop offset="0.644231" stop-color="#DFB2B5"/>
<stop offset="1" stop-color="white" stop-opacity="0"/>
</radialGradient>
<radialGradient id="paint4_radial_742_11810" cx="0" cy="0" r="1" gradientUnits="userSpaceOnUse" gradientTransform="translate(120.149 170.149) rotate(90) scale(4.14923)">
<stop offset="0.644231" stop-color="#DFB2B5"/>
<stop offset="1" stop-color="white" stop-opacity="0"/>
</radialGradient>
<radialGradient id="paint5_radial_742_11810" cx="0" cy="0" r="1" gradientUnits="userSpaceOnUse" gradientTransform="translate(267.251 463.251) rotate(90) scale(5.25146)">
<stop offset="0.644231" stop-color="#98FFF7"/>
<stop offset="1" stop-color="white" stop-opacity="0"/>
</radialGradient>
<radialGradient id="paint6_radial_742_11810" cx="0" cy="0" r="1" gradientUnits="userSpaceOnUse" gradientTransform="translate(293.251 734.251) rotate(90) scale(5.25146)">
<stop offset="0.644231" stop-color="#98FFF7"/>
<stop offset="1" stop-color="white" stop-opacity="0"/>
</radialGradient>
<radialGradient id="paint7_radial_742_11810" cx="0" cy="0" r="1" gradientUnits="userSpaceOnUse" gradientTransform="translate(220.751 71.7515) rotate(90) scale(4.75146)">
<stop offset="0.644231" stop-color="#98FFF7"/>
<stop offset="1" stop-color="white" stop-opacity="0"/>
</radialGradient>
<radialGradient id="paint8_radial_742_11810" cx="0" cy="0" r="1" gradientUnits="userSpaceOnUse" gradientTransform="translate(100.284 435.284) rotate(90) scale(3.28363)">
<stop offset="0.644231" stop-color="#98FFF7"/>
<stop offset="1" stop-color="white" stop-opacity="0"/>
</radialGradient>
<radialGradient id="paint9_radial_742_11810" cx="0" cy="0" r="1" gradientUnits="userSpaceOnUse" gradientTransform="translate(98.3596 313.459) rotate(90) scale(53.4591 44.3596)">
<stop stop-color="#FFFD99"/>
<stop offset="1" stop-color="white" stop-opacity="0"/>
</radialGradient>
<radialGradient id="paint10_radial_742_11810" cx="0" cy="0" r="1" gradientUnits="userSpaceOnUse" gradientTransform="translate(98.3604 314.028) rotate(90) scale(39.2412 32.9854)">
<stop stop-color="#D6FFFC"/>
<stop offset="1" stop-color="white" stop-opacity="0"/>
</radialGradient>
<radialGradient id="paint11_radial_742_11810" cx="0" cy="0" r="1" gradientUnits="userSpaceOnUse" gradientTransform="translate(2.96861 2.96861) rotate(90) scale(2.96861)">
<stop offset="0.644231" stop-color="#DFB2B5"/>
<stop offset="1" stop-color="white" stop-opacity="0"/>
</radialGradient>
<radialGradient id="paint12_radial_742_11810" cx="0" cy="0" r="1" gradientUnits="userSpaceOnUse" gradientTransform="translate(2.96861 2.96861) rotate(90) scale(2.96861)">
<stop offset="0.644231" stop-color="#98FFF7"/>
<stop offset="1" stop-color="white" stop-opacity="0"/>
</radialGradient>
<radialGradient id="paint13_radial_742_11810" cx="0" cy="0" r="1" gradientUnits="userSpaceOnUse" gradientTransform="translate(2.96861 2.96861) rotate(90) scale(2.96861)">
<stop offset="0.644231" stop-color="#98FFF7"/>
<stop offset="1" stop-color="white" stop-opacity="0"/>
</radialGradient>
<clipPath id="clip0_742_11810">
<rect width="390" height="844" fill="white"/>
</clipPath>
</defs>
</svg>
